<svg version="1.1" xmlns="http://www.w3.org/2000/svg" xmlns:xlink="http://www.w3.org/1999/xlink" width="2276" height="571" viewBox="0 0 2276 571"><defs/><g transform="matrix(1,0,0,1,0,0)"><g><g><g><path fill="none" stroke="#d3d3d3" paint-order="fill stroke markers" d=" M 0 0 L 1200 0" stroke-miterlimit="10" stroke-opacity="0.8" stroke-dasharray="5"/></g><g><path fill="none" stroke="#d3d3d3" paint-order="fill stroke markers" d=" M 0 0 L 0 800" stroke-miterlimit="10" stroke-opacity="0.8" stroke-dasharray="5"/></g></g><g id="_843CA25A-339A-486C-A7E2-550B121EE55E" bpmn2nodeid="_843CA25A-339A-486C-A7E2-550B121EE55E" transform="matrix(1,0,0,1,160.04,154.08999999999997)"><g><path fill="none" stroke="none"/></g><g transform="matrix(1,0,0,1,0,0)"><path fill="#f2f2f2" stroke="black" id="_843CA25A-339A-486C-A7E2-550B121EE55E?shapeType=BACKGROUND" paint-order="fill stroke markers" d=" M 0 0 L 2066 0 L 2066 367 L 0 367 L 0 0 Z Z" stroke-miterlimit="10" stroke-dasharray=""/></g><g transform="matrix(1,0,0,1,0,0)"><path fill="none" stroke="rgb(0,0,0)" id="_843CA25A-339A-486C-A7E2-550B121EE55E?shapeType=BORDER&amp;renderType=STROKE" paint-order="fill stroke markers" d=" M 0 0 L 2066 0 L 2066 367 L 0 367 L 0 0 Z Z" stroke-miterlimit="10" stroke-width="0.5" stroke-dasharray=""/></g><g transform="matrix(-1.8369701987210297e-16,-1,1,-1.8369701987210297e-16,0,267.75)"><text fill="#000000" stroke="none" font-family="Open Sans" font-size="12pt" font-style="normal" font-weight="normal" text-decoration="normal" x="84.25" y="12" text-anchor="middle" dominant-baseline="alphabetic">Менеджер отдела закупа</text></g><g id="_9FB5C6FC-E34E-4941-8AEC-CE5D607CFCFE" bpmn2nodeid="_9FB5C6FC-E34E-4941-8AEC-CE5D607CFCFE" transform="matrix(1,0,0,1,95.99999999999997,142)"><g><path fill="none" stroke="none"/></g><g transform="matrix(0.125,0,0,0.125,0,0)"><g transform="matrix(1,0,0,1,0,0)"><path fill="#e8fae6" stroke="black" id="_9FB5C6FC-E34E-4941-8AEC-CE5D607CFCFE?shapeType=BACKGROUND" paint-order="fill stroke markers" d=" M 0 0 M 444 224 C 444 263.9 434.2 300.8 414.4 334.5 C 394.7 368.2 368 394.9 334.4 414.5 C 300.79999999999995 434.1 263.9 444 224 444 C 184.10000000000002 444 147.2 434.2 113.5 414.4 C 79.8 394.7 53.1 368 33.5 334.4 C 13.899999999999999 300.79999999999995 4 263.9 4 224 C 4 184.10000000000002 13.8 147.2 33.6 113.5 C 53.400000000000006 79.80000000000001 80.1 53.1 113.6 33.5 C 147.1 13.899999999999999 184.1 4 224 4 C 263.9 4 300.8 13.8 334.5 33.6 C 368.2 53.400000000000006 394.9 80.1 414.5 113.6 C 434.1 147.1 444 184.1 444 224 Z" stroke-miterlimit="10" stroke-dasharray=""/></g><g><g transform="matrix(1,0,0,1,0,0)"><g transform="matrix(1,0,0,1,0,0)"><path fill="rgb(74,162,65)" stroke="none" id="_9FB5C6FC-E34E-4941-8AEC-CE5D607CFCFE?shapeType=BORDER&amp;renderType=FILL" paint-order="stroke fill markers" d=" M 0 0 M 224 0 C 100.3 0 0 100.3 0 224 C 0 347.7 100.3 448 224 448 C 347.7 448 448 347.7 448 224 C 448 100.30000000000001 347.7 0 224 0 Z M 0 0 M 224 432 C 109.1 432 16 338.9 16 224 C 16 109.10000000000002 109.1 16 224 16 C 338.9 16 432 109.1 432 224 C 432 338.9 338.9 432 224 432 Z"/></g></g></g><g><g transform="matrix(1,0,0,1,0,0)"><g transform="matrix(1,0,0,1,0,0)"><path fill="#4aa241" stroke="black" id="_9FB5C6FC-E34E-4941-8AEC-CE5D607CFCFE_message-catching" paint-order="fill stroke markers" d=" M 0 0 M 320.2 288.7 L 320.2 192.7 C 317.59999999999997 195.7 314.7 198.5 311.59999999999997 200.89999999999998 C 289.2 218.09999999999997 271.49999999999994 232.09999999999997 258.4 243.09999999999997 C 254.2 246.69999999999996 250.7 249.49999999999997 247.99999999999997 251.49999999999997 C 245.29999999999995 253.49999999999997 241.79999999999998 255.49999999999997 237.19999999999996 257.59999999999997 C 232.59999999999997 259.7 228.39999999999995 260.7 224.39999999999995 260.7 L 224.19999999999996 260.7 C 220.19999999999996 260.7 215.99999999999997 259.7 211.39999999999995 257.59999999999997 C 206.79999999999995 255.49999999999997 203.19999999999996 253.49999999999997 200.59999999999994 251.49999999999997 C 197.89999999999995 249.49999999999997 194.49999999999994 246.69999999999996 190.19999999999993 243.09999999999997 C 177.09999999999994 232.09999999999997 159.29999999999993 217.99999999999997 136.99999999999994 200.89999999999998 C 133.89999999999995 198.39999999999998 131.09999999999994 195.7 128.39999999999995 192.7 L 128.39999999999995 288.7 C 128.39999999999995 289.8 128.79999999999995 290.7 129.59999999999994 291.5 C 130.39999999999992 292.3 131.39999999999995 292.7 132.39999999999995 292.7 L 316.4 292.7 C 317.5 292.7 318.4 292.3 319.2 291.5 C 319.9 290.7 320.2 289.8 320.2 288.7 Z M 0 0 M 320.2 152.7 C 320.2 151.6 319.8 150.7 319 149.89999999999998 C 318.2 149.09999999999997 317.3 148.7 316.2 148.7 L 316.2 148.7 L 132.2 148.7 C 131.1 148.7 130.2 149.1 129.39999999999998 149.89999999999998 C 128.59999999999997 150.7 128.2 151.59999999999997 128.2 152.7 C 128.2 166.7 134.29999999999998 178.5 146.6 188.2 C 162.7 200.89999999999998 179.39999999999998 214.1 196.7 227.79999999999998 C 197.2 228.2 198.6 229.49999999999997 201.1 231.49999999999997 C 203.6 233.59999999999997 205.5 235.09999999999997 206.9 236.19999999999996 C 208.3 237.29999999999995 210.1 238.59999999999997 212.5 240.09999999999997 C 214.9 241.59999999999997 216.9 242.79999999999995 218.8 243.49999999999997 C 220.70000000000002 244.29999999999998 222.5 244.59999999999997 224.20000000000002 244.59999999999997 L 224.4 244.59999999999997 C 226 244.59999999999997 227.8 244.19999999999996 229.8 243.49999999999997 C 231.8 242.79999999999998 233.8 241.59999999999997 236.10000000000002 240.09999999999997 C 238.40000000000003 238.59999999999997 240.3 237.19999999999996 241.70000000000002 236.19999999999996 C 243.10000000000002 235.09999999999997 245.10000000000002 233.59999999999997 247.50000000000003 231.49999999999997 C 249.90000000000003 229.39999999999998 251.40000000000003 228.29999999999998 251.90000000000003 227.79999999999998 C 269.3 213.99999999999997 285.90000000000003 200.89999999999998 302.00000000000006 188.2 C 306.50000000000006 184.6 310.70000000000005 179.79999999999998 314.6000000000001 173.7 C 318.50000000000006 167.7 320.4000000000001 162.2 320.4000000000001 157.29999999999998 L 320.4000000000001 154.2 L 320.4000000000001 152.7 Z M 0 0 M 336.2 152.7 L 336.2 288.7 C 336.2 294.2 334.3 298.9 330.3 302.8 C 326.40000000000003 306.7 321.7 308.7 316.2 308.7 L 132.2 308.7 C 126.69999999999999 308.7 121.99999999999999 306.7 118.1 302.8 C 114.19999999999999 298.90000000000003 112.19999999999999 294.2 112.19999999999999 288.7 L 112.19999999999999 152.7 C 112.19999999999999 147.2 114.19999999999999 142.5 118.1 138.6 C 122 134.7 126.69999999999999 132.7 132.2 132.7 L 316.2 132.7 C 321.7 132.7 326.4 134.6 330.3 138.6 C 334.2 142.6 336.2 147.2 336.2 152.7 Z" stroke-miterlimit="10" stroke-dasharray=""/></g></g></g></g><g transform="matrix(1,0,0,1,-73.46875,61)"><text fill="#000000" stroke="none" font-family="Open Sans" font-size="12pt" font-style="normal" font-weight="normal" text-decoration="normal" x="101.46875" y="12" text-anchor="middle" dominant-baseline="alphabetic">Сообщение о необходимости </text><text fill="#000000" stroke="none" font-family="Open Sans" font-size="12pt" font-style="normal" font-weight="normal" text-decoration="normal" x="101.46875" y="27" text-anchor="middle" dominant-baseline="alphabetic">                  закупки                  </text></g></g><g id="_EBB26804-3850-4102-9C38-FB753A02F093" bpmn2nodeid="_EBB26804-3850-4102-9C38-FB753A02F093" transform="matrix(1,0,0,1,217.99999999999997,119)"><g><path fill="none" stroke="none"/></g><g transform="matrix(1,0,0,1,0,0)"><path fill="#ffffff" stroke="none" id="_EBB26804-3850-4102-9C38-FB753A02F093?shapeType=BACKGROUND" paint-order="stroke fill markers" d=" M 2 0 L 152 0 L 152 0 A 2 2 0 0 1 154 2 L 154 100 L 154 100 A 2 2 0 0 1 152 102 L 2 102 L 2 102 A 2 2 0 0 1 0 100 L 0 2 L 0 2.0000000000000004 A 2 2 0 0 1 1.9999999999999996 0 Z"/></g><g transform="matrix(1,0,0,1,0,0)"><path fill="none" stroke="rgb(0,0,0)" id="_EBB26804-3850-4102-9C38-FB753A02F093?shapeType=BORDER&amp;renderType=STROKE" paint-order="fill stroke markers" d=" M 2 0 L 152 0 L 152 0 A 2 2 0 0 1 154 2 L 154 100 L 154 100 A 2 2 0 0 1 152 102 L 2 102 L 2 102 A 2 2 0 0 1 0 100 L 0 2 L 0 2.0000000000000004 A 2 2 0 0 1 1.9999999999999996 0 Z" stroke-miterlimit="10" stroke-width="1.5" stroke-dasharray=""/></g><g transform="matrix(1,0,0,1,8.05859375,36)"><text fill="#000000" stroke="none" font-family="Open Sans" font-size="12pt" font-style="normal" font-weight="normal" text-decoration="normal" x="68.94140625" y="12" text-anchor="middle" dominant-baseline="alphabetic">Уточнить остатки в </text><text fill="#000000" stroke="none" font-family="Open Sans" font-size="12pt" font-style="normal" font-weight="normal" text-decoration="normal" x="68.94140625" y="27" text-anchor="middle" dominant-baseline="alphabetic">   учетной системе   </text></g></g><g id="_2D60DCF9-2407-4379-8B4B-C4ECEFDD6A48" bpmn2nodeid="_2D60DCF9-2407-4379-8B4B-C4ECEFDD6A48" transform="matrix(1,0,0,1,444,119)"><g><path fill="none" stroke="none"/></g><g transform="matrix(1,0,0,1,0,0)"><path fill="#ffffff" stroke="none" id="_2D60DCF9-2407-4379-8B4B-C4ECEFDD6A48?shapeType=BACKGROUND" paint-order="stroke fill markers" d=" M 2 0 L 152 0 L 152 0 A 2 2 0 0 1 154 2 L 154 100 L 154 100 A 2 2 0 0 1 152 102 L 2 102 L 2 102 A 2 2 0 0 1 0 100 L 0 2 L 0 2.0000000000000004 A 2 2 0 0 1 1.9999999999999996 0 Z"/></g><g transform="matrix(1,0,0,1,0,0)"><path fill="none" stroke="rgb(0,0,0)" id="_2D60DCF9-2407-4379-8B4B-C4ECEFDD6A48?shapeType=BORDER&amp;renderType=STROKE" paint-order="fill stroke markers" d=" M 2 0 L 152 0 L 152 0 A 2 2 0 0 1 154 2 L 154 100 L 154 100 A 2 2 0 0 1 152 102 L 2 102 L 2 102 A 2 2 0 0 1 0 100 L 0 2 L 0 2.0000000000000004 A 2 2 0 0 1 1.9999999999999996 0 Z" stroke-miterlimit="10" stroke-width="1.5" stroke-dasharray=""/></g><g transform="matrix(1,0,0,1,23.41015625,21)"><text fill="#000000" stroke="none" font-family="Open Sans" font-size="12pt" font-style="normal" font-weight="normal" text-decoration="normal" x="53.58984375" y="12" text-anchor="middle" dominant-baseline="alphabetic">       Расчет        </text><text fill="#000000" stroke="none" font-family="Open Sans" font-size="12pt" font-style="normal" font-weight="normal" text-decoration="normal" x="53.58984375" y="27" text-anchor="middle" dominant-baseline="alphabetic"> необходимого  </text><text fill="#000000" stroke="none" font-family="Open Sans" font-size="12pt" font-style="normal" font-weight="normal" text-decoration="normal" x="53.58984375" y="42" text-anchor="middle" dominant-baseline="alphabetic">количества для </text><text fill="#000000" stroke="none" font-family="Open Sans" font-size="12pt" font-style="normal" font-weight="normal" text-decoration="normal" x="53.58984375" y="57" text-anchor="middle" dominant-baseline="alphabetic">      закупки       </text></g></g><g id="_06A47C2C-E5D6-4315-94AD-97D38EB41E7B" bpmn2nodeid="_06A47C2C-E5D6-4315-94AD-97D38EB41E7B" transform="matrix(1,0,0,1,669.96,119)"><g><path fill="none" stroke="none"/></g><g transform="matrix(1,0,0,1,0,0)"><path fill="#ffffff" stroke="none" id="_06A47C2C-E5D6-4315-94AD-97D38EB41E7B?shapeType=BACKGROUND" paint-order="stroke fill markers" d=" M 2 0 L 152 0 L 152 0 A 2 2 0 0 1 154 2 L 154 100 L 154 100 A 2 2 0 0 1 152 102 L 2 102 L 2 102 A 2 2 0 0 1 0 100 L 0 2 L 0 2.0000000000000004 A 2 2 0 0 1 1.9999999999999996 0 Z"/></g><g transform="matrix(1,0,0,1,0,0)"><path fill="none" stroke="rgb(0,0,0)" id="_06A47C2C-E5D6-4315-94AD-97D38EB41E7B?shapeType=BORDER&amp;renderType=STROKE" paint-order="fill stroke markers" d=" M 2 0 L 152 0 L 152 0 A 2 2 0 0 1 154 2 L 154 100 L 154 100 A 2 2 0 0 1 152 102 L 2 102 L 2 102 A 2 2 0 0 1 0 100 L 0 2 L 0 2.0000000000000004 A 2 2 0 0 1 1.9999999999999996 0 Z" stroke-miterlimit="10" stroke-width="1.5" stroke-dasharray=""/></g><g transform="matrix(1,0,0,1,18.30859375,36)"><text fill="#000000" stroke="none" font-family="Open Sans" font-size="12pt" font-style="normal" font-weight="normal" text-decoration="normal" x="58.69140625" y="12" text-anchor="middle" dominant-baseline="alphabetic">Отправка заявки </text><text fill="#000000" stroke="none" font-family="Open Sans" font-size="12pt" font-style="normal" font-weight="normal" text-decoration="normal" x="58.69140625" y="27" text-anchor="middle" dominant-baseline="alphabetic">   поставщикам   </text></g></g><g id="_33E71586-C51E-49EE-96FE-65D5510B8289" bpmn2nodeid="_33E71586-C51E-49EE-96FE-65D5510B8289" transform="matrix(1,0,0,1,916,119)"><g><path fill="none" stroke="none"/></g><g transform="matrix(1,0,0,1,0,0)"><path fill="#ffffff" stroke="none" id="_33E71586-C51E-49EE-96FE-65D5510B8289?shapeType=BACKGROUND" paint-order="stroke fill markers" d=" M 2 0 L 152 0 L 152 0 A 2 2 0 0 1 154 2 L 154 100 L 154 100 A 2 2 0 0 1 152 102 L 2 102 L 2 102 A 2 2 0 0 1 0 100 L 0 2 L 0 2.0000000000000004 A 2 2 0 0 1 1.9999999999999996 0 Z"/></g><g transform="matrix(1,0,0,1,0,0)"><path fill="none" stroke="rgb(0,0,0)" id="_33E71586-C51E-49EE-96FE-65D5510B8289?shapeType=BORDER&amp;renderType=STROKE" paint-order="fill stroke markers" d=" M 2 0 L 152 0 L 152 0 A 2 2 0 0 1 154 2 L 154 100 L 154 100 A 2 2 0 0 1 152 102 L 2 102 L 2 102 A 2 2 0 0 1 0 100 L 0 2 L 0 2.0000000000000004 A 2 2 0 0 1 1.9999999999999996 0 Z" stroke-miterlimit="10" stroke-width="1.5" stroke-dasharray=""/></g><g transform="matrix(1,0,0,1,27.23046875,28.5)"><text fill="#000000" stroke="none" font-family="Open Sans" font-size="12pt" font-style="normal" font-weight="normal" text-decoration="normal" x="49.76953125" y="12" text-anchor="middle" dominant-baseline="alphabetic">      Выбор       </text><text fill="#000000" stroke="none" font-family="Open Sans" font-size="12pt" font-style="normal" font-weight="normal" text-decoration="normal" x="49.76953125" y="27" text-anchor="middle" dominant-baseline="alphabetic">оптимального </text><text fill="#000000" stroke="none" font-family="Open Sans" font-size="12pt" font-style="normal" font-weight="normal" text-decoration="normal" x="49.76953125" y="42" text-anchor="middle" dominant-baseline="alphabetic"> предложения </text></g></g><g id="_789ABC93-1105-4263-84F0-FFD66F9AD698" bpmn2nodeid="_789ABC93-1105-4263-84F0-FFD66F9AD698" transform="matrix(1,0,0,1,1138,119)"><g><path fill="none" stroke="none"/></g><g transform="matrix(1,0,0,1,0,0)"><path fill="#ffffff" stroke="none" id="_789ABC93-1105-4263-84F0-FFD66F9AD698?shapeType=BACKGROUND" paint-order="stroke fill markers" d=" M 2 0 L 152 0 L 152 0 A 2 2 0 0 1 154 2 L 154 100 L 154 100 A 2 2 0 0 1 152 102 L 2 102 L 2 102 A 2 2 0 0 1 0 100 L 0 2 L 0 2.0000000000000004 A 2 2 0 0 1 1.9999999999999996 0 Z"/></g><g transform="matrix(1,0,0,1,0,0)"><path fill="none" stroke="rgb(0,0,0)" id="_789ABC93-1105-4263-84F0-FFD66F9AD698?shapeType=BORDER&amp;renderType=STROKE" paint-order="fill stroke markers" d=" M 2 0 L 152 0 L 152 0 A 2 2 0 0 1 154 2 L 154 100 L 154 100 A 2 2 0 0 1 152 102 L 2 102 L 2 102 A 2 2 0 0 1 0 100 L 0 2 L 0 2.0000000000000004 A 2 2 0 0 1 1.9999999999999996 0 Z" stroke-miterlimit="10" stroke-width="1.5" stroke-dasharray=""/></g><g transform="matrix(1,0,0,1,10.9453125,36)"><text fill="#000000" stroke="none" font-family="Open Sans" font-size="12pt" font-style="normal" font-weight="normal" text-decoration="normal" x="66.0546875" y="12" text-anchor="middle" dominant-baseline="alphabetic"> Сформироватать   </text><text fill="#000000" stroke="none" font-family="Open Sans" font-size="12pt" font-style="normal" font-weight="normal" text-decoration="normal" x="66.0546875" y="27" text-anchor="middle" dominant-baseline="alphabetic">заказ у поставщика</text></g></g><g id="_C275B96B-A34D-467F-BAC3-556D58FBDE46" bpmn2nodeid="_C275B96B-A34D-467F-BAC3-556D58FBDE46" transform="matrix(1,0,0,1,1377,119)"><g><path fill="none" stroke="none"/></g><g transform="matrix(1,0,0,1,0,0)"><path fill="#ffffff" stroke="none" id="_C275B96B-A34D-467F-BAC3-556D58FBDE46?shapeType=BACKGROUND" paint-order="stroke fill markers" d=" M 2 0 L 152 0 L 152 0 A 2 2 0 0 1 154 2 L 154 100 L 154 100 A 2 2 0 0 1 152 102 L 2 102 L 2 102 A 2 2 0 0 1 0 100 L 0 2 L 0 2.0000000000000004 A 2 2 0 0 1 1.9999999999999996 0 Z"/></g><g transform="matrix(1,0,0,1,0,0)"><path fill="none" stroke="rgb(0,0,0)" id="_C275B96B-A34D-467F-BAC3-556D58FBDE46?shapeType=BORDER&amp;renderType=STROKE" paint-order="fill stroke markers" d=" M 2 0 L 152 0 L 152 0 A 2 2 0 0 1 154 2 L 154 100 L 154 100 A 2 2 0 0 1 152 102 L 2 102 L 2 102 A 2 2 0 0 1 0 100 L 0 2 L 0 2.0000000000000004 A 2 2 0 0 1 1.9999999999999996 0 Z" stroke-miterlimit="10" stroke-width="1.5" stroke-dasharray=""/></g><g transform="matrix(1,0,0,1,18.63671875,36)"><text fill="#000000" stroke="none" font-family="Open Sans" font-size="12pt" font-style="normal" font-weight="normal" text-decoration="normal" x="58.36328125" y="12" text-anchor="middle" dominant-baseline="alphabetic">передать счет на </text><text fill="#000000" stroke="none" font-family="Open Sans" font-size="12pt" font-style="normal" font-weight="normal" text-decoration="normal" x="58.36328125" y="27" text-anchor="middle" dominant-baseline="alphabetic">        оплату         </text></g></g><g id="_D5BE351C-4191-44DA-89F7-FA27389E025E" bpmn2nodeid="_D5BE351C-4191-44DA-89F7-FA27389E025E" transform="matrix(1,0,0,1,1622.96,142)"><g><path fill="none" stroke="none"/></g><g transform="matrix(0.125,0,0,0.125,0,0)"><g transform="matrix(1,0,0,1,0,0)"><path fill="#fbefcf" stroke="black" id="_D5BE351C-4191-44DA-89F7-FA27389E025E?shapeType=BACKGROUND" paint-order="fill stroke markers" d=" M 0 0 M 444 224 C 444 263.9 434.2 300.8 414.4 334.5 C 394.7 368.2 368 394.9 334.4 414.5 C 300.79999999999995 434.1 263.9 444 224 444 C 184.10000000000002 444 147.2 434.2 113.5 414.4 C 79.8 394.7 53.1 368 33.5 334.4 C 13.899999999999999 300.79999999999995 4 263.9 4 224 C 4 184.10000000000002 13.8 147.2 33.6 113.5 C 53.400000000000006 79.80000000000001 80.1 53.1 113.6 33.5 C 147.1 13.899999999999999 184.1 4 224 4 C 263.9 4 300.8 13.8 334.5 33.6 C 368.2 53.400000000000006 394.9 80.1 414.5 113.6 C 434.1 147.1 444 184.1 444 224 Z" stroke-miterlimit="10" stroke-dasharray=""/></g><g><g transform="matrix(1,0,0,1,0,0)"><g transform="matrix(1,0,0,1,0,0)"><path fill="rgb(229,160,0)" stroke="none" id="_D5BE351C-4191-44DA-89F7-FA27389E025E?shapeType=BORDER&amp;renderType=FILL" paint-order="stroke fill markers" d=" M 0 0 M 224 408 C 122.5 408 40 325.5 40 224 C 40 122.5 122.5 40 224 40 C 325.5 40 408 122.5 408 224 C 408 325.5 325.5 408 224 408 Z M 0 0 M 224 56 C 131.4 56 56 131.4 56 224 C 56 316.6 131.4 392 224 392 C 316.6 392 392 316.6 392 224 C 392 131.39999999999998 316.6 56 224 56 Z M 0 0 M 224 16 C 252.1 16 279.3 21.5 305 32.3 C 329.8 42.8 352 57.8 371.1 76.9 C 390.20000000000005 96.00000000000001 405.20000000000005 118.30000000000001 415.70000000000005 143 C 426.50000000000006 168.6 432.00000000000006 195.9 432.00000000000006 224 C 432.00000000000006 252.1 426.50000000000006 279.3 415.70000000000005 305 C 405.20000000000005 329.8 390.20000000000005 352 371.1 371.1 C 352 390.20000000000005 329.70000000000005 405.20000000000005 305 415.70000000000005 C 279.4 426.50000000000006 252.1 432.00000000000006 224 432.00000000000006 C 195.9 432.00000000000006 168.7 426.50000000000006 143 415.70000000000005 C 118.2 405.20000000000005 96 390.20000000000005 76.9 371.1 C 57.80000000000001 352 42.8 329.7 32.3 305 C 21.5 279.3 16 252.1 16 224 C 16 195.9 21.5 168.7 32.3 143 C 42.8 118.2 57.8 96 76.9 76.9 C 96.00000000000001 57.80000000000001 118.30000000000001 42.800000000000004 143 32.300000000000004 C 168.7 21.5 195.9 16 224 16 M 224 0 C 100.3 0 0 100.3 0 224 C 0 347.7 100.3 448 224 448 C 347.7 448 448 347.7 448 224 C 448 100.30000000000001 347.7 0 224 0 L 224 0 Z"/></g></g></g><g><g transform="matrix(1,0,0,1,0,0)"><g transform="matrix(1,0,0,1,0,0)"><path fill="#e5a000" stroke="black" id="_D5BE351C-4191-44DA-89F7-FA27389E025E_message-catching" paint-order="fill stroke markers" d=" M 0 0 M 320.2 288.7 L 320.2 192.7 C 317.59999999999997 195.7 314.7 198.5 311.59999999999997 200.89999999999998 C 289.2 218.09999999999997 271.49999999999994 232.09999999999997 258.4 243.09999999999997 C 254.2 246.69999999999996 250.7 249.49999999999997 247.99999999999997 251.49999999999997 C 245.29999999999995 253.49999999999997 241.79999999999998 255.49999999999997 237.19999999999996 257.59999999999997 C 232.59999999999997 259.7 228.39999999999995 260.7 224.39999999999995 260.7 L 224.19999999999996 260.7 C 220.19999999999996 260.7 215.99999999999997 259.7 211.39999999999995 257.59999999999997 C 206.79999999999995 255.49999999999997 203.19999999999996 253.49999999999997 200.59999999999994 251.49999999999997 C 197.89999999999995 249.49999999999997 194.49999999999994 246.69999999999996 190.19999999999993 243.09999999999997 C 177.09999999999994 232.09999999999997 159.29999999999993 217.99999999999997 136.99999999999994 200.89999999999998 C 133.89999999999995 198.39999999999998 131.09999999999994 195.7 128.39999999999995 192.7 L 128.39999999999995 288.7 C 128.39999999999995 289.8 128.79999999999995 290.7 129.59999999999994 291.5 C 130.39999999999992 292.3 131.39999999999995 292.7 132.39999999999995 292.7 L 316.4 292.7 C 317.5 292.7 318.4 292.3 319.2 291.5 C 319.9 290.7 320.2 289.8 320.2 288.7 Z M 0 0 M 320.2 152.7 C 320.2 151.6 319.8 150.7 319 149.89999999999998 C 318.2 149.09999999999997 317.3 148.7 316.2 148.7 L 316.2 148.7 L 132.2 148.7 C 131.1 148.7 130.2 149.1 129.39999999999998 149.89999999999998 C 128.59999999999997 150.7 128.2 151.59999999999997 128.2 152.7 C 128.2 166.7 134.29999999999998 178.5 146.6 188.2 C 162.7 200.89999999999998 179.39999999999998 214.1 196.7 227.79999999999998 C 197.2 228.2 198.6 229.49999999999997 201.1 231.49999999999997 C 203.6 233.59999999999997 205.5 235.09999999999997 206.9 236.19999999999996 C 208.3 237.29999999999995 210.1 238.59999999999997 212.5 240.09999999999997 C 214.9 241.59999999999997 216.9 242.79999999999995 218.8 243.49999999999997 C 220.70000000000002 244.29999999999998 222.5 244.59999999999997 224.20000000000002 244.59999999999997 L 224.4 244.59999999999997 C 226 244.59999999999997 227.8 244.19999999999996 229.8 243.49999999999997 C 231.8 242.79999999999998 233.8 241.59999999999997 236.10000000000002 240.09999999999997 C 238.40000000000003 238.59999999999997 240.3 237.19999999999996 241.70000000000002 236.19999999999996 C 243.10000000000002 235.09999999999997 245.10000000000002 233.59999999999997 247.50000000000003 231.49999999999997 C 249.90000000000003 229.39999999999998 251.40000000000003 228.29999999999998 251.90000000000003 227.79999999999998 C 269.3 213.99999999999997 285.90000000000003 200.89999999999998 302.00000000000006 188.2 C 306.50000000000006 184.6 310.70000000000005 179.79999999999998 314.6000000000001 173.7 C 318.50000000000006 167.7 320.4000000000001 162.2 320.4000000000001 157.29999999999998 L 320.4000000000001 154.2 L 320.4000000000001 152.7 Z M 0 0 M 336.2 152.7 L 336.2 288.7 C 336.2 294.2 334.3 298.9 330.3 302.8 C 326.40000000000003 306.7 321.7 308.7 316.2 308.7 L 132.2 308.7 C 126.69999999999999 308.7 121.99999999999999 306.7 118.1 302.8 C 114.19999999999999 298.90000000000003 112.19999999999999 294.2 112.19999999999999 288.7 L 112.19999999999999 152.7 C 112.19999999999999 147.2 114.19999999999999 142.5 118.1 138.6 C 122 134.7 126.69999999999999 132.7 132.2 132.7 L 316.2 132.7 C 321.7 132.7 326.4 134.6 330.3 138.6 C 334.2 142.6 336.2 147.2 336.2 152.7 Z" stroke-miterlimit="10" stroke-dasharray=""/></g></g></g></g><g transform="matrix(1,0,0,1,-50.890625,61)"><text fill="#000000" stroke="none" font-family="Open Sans" font-size="12pt" font-style="normal" font-weight="normal" text-decoration="normal" x="78.890625" y="12" text-anchor="middle" dominant-baseline="alphabetic">Товар пришел на склад</text></g></g><g id="_67F89044-237C-441B-B155-B4CFB558B924" bpmn2nodeid="_67F89044-237C-441B-B155-B4CFB558B924" transform="matrix(1,0,0,1,1755.96,118.91000000000003)"><g><path fill="none" stroke="none"/></g><g transform="matrix(1,0,0,1,0,0)"><path fill="#ffffff" stroke="none" id="_67F89044-237C-441B-B155-B4CFB558B924?shapeType=BACKGROUND" paint-order="stroke fill markers" d=" M 2 0 L 152 0 L 152 0 A 2 2 0 0 1 154 2 L 154 100 L 154 100 A 2 2 0 0 1 152 102 L 2 102 L 2 102 A 2 2 0 0 1 0 100 L 0 2 L 0 2.0000000000000004 A 2 2 0 0 1 1.9999999999999996 0 Z"/></g><g transform="matrix(1,0,0,1,0,0)"><path fill="none" stroke="rgb(0,0,0)" id="_67F89044-237C-441B-B155-B4CFB558B924?shapeType=BORDER&amp;renderType=STROKE" paint-order="fill stroke markers" d=" M 2 0 L 152 0 L 152 0 A 2 2 0 0 1 154 2 L 154 100 L 154 100 A 2 2 0 0 1 152 102 L 2 102 L 2 102 A 2 2 0 0 1 0 100 L 0 2 L 0 2.0000000000000004 A 2 2 0 0 1 1.9999999999999996 0 Z" stroke-miterlimit="10" stroke-width="1.5" stroke-dasharray=""/></g><g transform="matrix(1,0,0,1,25.01953125,28.5)"><text fill="#000000" stroke="none" font-family="Open Sans" font-size="12pt" font-style="normal" font-weight="normal" text-decoration="normal" x="51.98046875" y="12" text-anchor="middle" dominant-baseline="alphabetic">Сформировать </text><text fill="#000000" stroke="none" font-family="Open Sans" font-size="12pt" font-style="normal" font-weight="normal" text-decoration="normal" x="51.98046875" y="27" text-anchor="middle" dominant-baseline="alphabetic">   приходную    </text><text fill="#000000" stroke="none" font-family="Open Sans" font-size="12pt" font-style="normal" font-weight="normal" text-decoration="normal" x="51.98046875" y="42" text-anchor="middle" dominant-baseline="alphabetic">   накладную    </text></g></g><g id="_1B03BC68-2932-4FCC-908F-ADECC3B00658" bpmn2nodeid="_1B03BC68-2932-4FCC-908F-ADECC3B00658" transform="matrix(1,0,0,1,1986.96,141.91000000000003)"><g><path fill="none" stroke="none"/></g><g transform="matrix(0.125,0,0,0.125,0,0)"><g transform="matrix(1,0,0,1,0,0)"><path fill="#fce7e7" stroke="black" id="_1B03BC68-2932-4FCC-908F-ADECC3B00658?shapeType=BACKGROUND" paint-order="fill stroke markers" d=" M 0 0 M 444 224 C 444 263.9 434.2 300.8 414.4 334.5 C 394.7 368.2 368 394.9 334.4 414.5 C 300.79999999999995 434.1 263.9 444 224 444 C 184.10000000000002 444 147.2 434.2 113.5 414.4 C 79.8 394.7 53.1 368 33.5 334.4 C 13.899999999999999 300.79999999999995 4 263.9 4 224 C 4 184.10000000000002 13.8 147.2 33.6 113.5 C 53.400000000000006 79.80000000000001 80.1 53.1 113.6 33.5 C 147.1 13.899999999999999 184.1 4 224 4 C 263.9 4 300.8 13.8 334.5 33.6 C 368.2 53.400000000000006 394.9 80.1 414.5 113.6 C 434.1 147.1 444 184.1 444 224 Z" stroke-miterlimit="10" stroke-dasharray=""/></g><g><g transform="matrix(1,0,0,1,0,0)"><g transform="matrix(1,0,0,1,0,0)"><path fill="rgb(163,0,0)" stroke="black" id="_1B03BC68-2932-4FCC-908F-ADECC3B00658?shapeType=BORDER&amp;renderType=FILL" paint-order="fill stroke markers" d=" M 0 0 M 224 0 C 100.3 0 0 100.3 0 224 C 0 347.7 100.3 448 224 448 C 347.7 448 448 347.7 448 224 C 448 100.30000000000001 347.7 0 224 0 Z M 0 0 M 224 400 C 126.8 400 48 321.2 48 224 C 48 126.80000000000001 126.8 48 224 48 C 321.2 48 400 126.8 400 224 C 400 321.2 321.2 400 224 400 Z" stroke-miterlimit="10" stroke-dasharray=""/></g></g></g></g><g transform="matrix(1,0,0,1,28,61)"/></g></g><g id="_579D963B-4ED3-4ADA-B05B-ABF72C7F6481" bpmn2nodeid="_579D963B-4ED3-4ADA-B05B-ABF72C7F6481"><g><path fill="none" stroke="#000000" paint-order="fill stroke markers" d=" M 312.03999999999996 324.0900000006353 L 363.03999999999996 324.09000000040874" stroke-miterlimit="10" stroke-dasharray=""/></g><g transform="matrix(1,0,0,1,312.03999999999996,324.0900000006353)"/><g transform="matrix(4.445172178334159e-12,1,-1,4.445172178334159e-12,378.03999999997774,319.09000000034206)"><path fill="#000000" stroke="#000000" paint-order="fill stroke markers" d=" M 10 15 L 0 15 L 5 0 Z" stroke-miterlimit="10" stroke-dasharray=""/></g><g transform="matrix(1,0,0,1,312.0400000000444,314.09000000048866)"/></g><g id="_D6FBED5B-EFA2-428B-B8F7-F4F3784A1D79" bpmn2nodeid="_D6FBED5B-EFA2-428B-B8F7-F4F3784A1D79"><g><path fill="none" stroke="#000000" paint-order="fill stroke markers" d=" M 532.04 324.08999987946777 L 589.04 324.0899999255774" stroke-miterlimit="10" stroke-dasharray=""/></g><g transform="matrix(1,0,0,1,532.04,324.08999987946777)"/><g transform="matrix(-8.089424073341026e-10,1,-1,-8.089424073341026e-10,604.0400000040447,319.0899999377115)"><path fill="#000000" stroke="#000000" paint-order="fill stroke markers" d=" M 10 15 L 0 15 L 5 0 Z" stroke-miterlimit="10" stroke-dasharray=""/></g><g transform="matrix(1,0,0,1,532.0400000080894,314.0899999085897)"/></g><g id="_8F554A06-FE1B-48A3-9899-7A312D3FE661" bpmn2nodeid="_8F554A06-FE1B-48A3-9899-7A312D3FE661"><g><path fill="none" stroke="#000000" paint-order="fill stroke markers" d=" M 758.04 324.09 L 815 324.09" stroke-miterlimit="10" stroke-dasharray=""/></g><g transform="matrix(1,0,0,1,758.04,324.09)"/><g transform="matrix(6.123233995736766e-17,1,-1,6.123233995736766e-17,830,319.09)"><path fill="#000000" stroke="#000000" paint-order="fill stroke markers" d=" M 10 15 L 0 15 L 5 0 Z" stroke-miterlimit="10" stroke-dasharray=""/></g><g transform="matrix(1,0,0,1,758.04,314.09)"/></g><g id="_831423C7-8183-4961-9100-565B15339FCC" bpmn2nodeid="_831423C7-8183-4961-9100-565B15339FCC"><g><path fill="none" stroke="#000000" paint-order="fill stroke markers" d=" M 984 324.0900000088726 L 1061.04 324.09000000482894" stroke-miterlimit="10" stroke-dasharray=""/></g><g transform="matrix(1,0,0,1,984,324.0900000088726)"/><g transform="matrix(5.248918539056811e-11,1,-1,5.248918539056811e-11,1076.0399999997376,319.0900000040416)"><path fill="#000000" stroke="#000000" paint-order="fill stroke markers" d=" M 10 15 L 0 15 L 5 0 Z" stroke-miterlimit="10" stroke-dasharray=""/></g><g transform="matrix(1,0,0,1,984.0000000005249,314.0900000064571)"/></g><g id="_76B36D9C-BCF4-4D28-A5F9-A7750EB80F3C" bpmn2nodeid="_76B36D9C-BCF4-4D28-A5F9-A7750EB80F3C"><g><path fill="none" stroke="#000000" paint-order="fill stroke markers" d=" M 1230.04 324.0899999999999 L 1283.04 324.0899999999999" stroke-miterlimit="10" stroke-dasharray=""/></g><g transform="matrix(1,0,0,1,1230.04,324.0899999999999)"/><g transform="matrix(6.123233995736766e-17,1,-1,6.123233995736766e-17,1298.04,319.0899999999999)"><path fill="#000000" stroke="#000000" paint-order="fill stroke markers" d=" M 10 15 L 0 15 L 5 0 Z" stroke-miterlimit="10" stroke-dasharray=""/></g><g transform="matrix(1,0,0,1,1230.04,314.0899999999999)"/></g><g id="_9EF11579-75E1-4772-A281-C01B9FE42651" bpmn2nodeid="_9EF11579-75E1-4772-A281-C01B9FE42651"><g><path fill="none" stroke="#000000" paint-order="fill stroke markers" d=" M 1452.04 324.09 L 1522.04 324.09" stroke-miterlimit="10" stroke-dasharray=""/></g><g transform="matrix(1,0,0,1,1452.04,324.09)"/><g transform="matrix(6.123233995736766e-17,1,-1,6.123233995736766e-17,1537.04,319.09)"><path fill="#000000" stroke="#000000" paint-order="fill stroke markers" d=" M 10 15 L 0 15 L 5 0 Z" stroke-miterlimit="10" stroke-dasharray=""/></g><g transform="matrix(1,0,0,1,1452.04,314.09)"/></g><g id="_6D5377D0-D4B6-4CB6-A0E3-757F23D9F901" bpmn2nodeid="_6D5377D0-D4B6-4CB6-A0E3-757F23D9F901"><g><path fill="none" stroke="rgb(0,0,0)" paint-order="fill stroke markers" d=" M 1691.04 324.09 L 1768 324.09" stroke-miterlimit="10" stroke-dasharray=""/></g><g transform="matrix(1,0,0,1,1691.04,324.09)"/><g transform="matrix(6.123233995736766e-17,1,-1,6.123233995736766e-17,1783,319.09)"><path fill="rgb(0,0,0)" stroke="rgb(0,0,0)" paint-order="fill stroke markers" d=" M 10 15 L 0 15 L 5 0 Z" stroke-miterlimit="10" stroke-dasharray=""/></g><g transform="matrix(1,0,0,1,1691.04,314.09)"/></g><g id="_EA5F0E7B-8CEF-4182-8275-F87C62D03626" bpmn2nodeid="_EA5F0E7B-8CEF-4182-8275-F87C62D03626"><g><path fill="none" stroke="rgb(0,0,0)" paint-order="fill stroke markers" d=" M 1839 324.066 L 1901.000005510201 324.0128571381341" stroke-miterlimit="10" stroke-dasharray=""/></g><g transform="matrix(1,0,0,1,1839,324.066)"/><g transform="matrix(0.0008571425422740097,0.9999996326532636,-0.9999996326532636,0.0008571425422740097,1915.9957142872886,319.0000018367337)"><path fill="rgb(0,0,0)" stroke="rgb(0,0,0)" paint-order="fill stroke markers" d=" M 10 15 L 0 15 L 5 0 Z" stroke-miterlimit="10" stroke-dasharray=""/></g><g transform="matrix(1,0,0,1,1839.0085714254228,314.03300367346736)"/></g><g id="_26AF092F-7296-4219-AD3C-4224062854A3" bpmn2nodeid="_26AF092F-7296-4219-AD3C-4224062854A3"><g><path fill="none" stroke="#000000" paint-order="fill stroke markers" d=" M 2070 324 L 2132 324" stroke-miterlimit="10" stroke-dasharray=""/></g><g transform="matrix(1,0,0,1,2070,324)"/><g transform="matrix(6.123233995736766e-17,1,-1,6.123233995736766e-17,2147,319)"><path fill="#000000" stroke="#000000" paint-order="fill stroke markers" d=" M 10 15 L 0 15 L 5 0 Z" stroke-miterlimit="10" stroke-dasharray=""/></g><g transform="matrix(1,0,0,1,2070,314)"/></g><g transform="matrix(1,0,0,1,160.04,154.08999999999997)"/><g transform="matrix(1,0,0,1,256.03999999999996,296.09)"/><g transform="matrix(1,0,0,1,378.03999999999996,273.09)"/><g transform="matrix(1,0,0,1,604.04,273.09)"/><g transform="matrix(1,0,0,1,830,273.09)"/><g transform="matrix(1,0,0,1,1076.04,273.09)"/><g transform="matrix(1,0,0,1,1298.04,273.09)"/><g transform="matrix(1,0,0,1,1537.04,273.09)"/><g transform="matrix(1,0,0,1,1783,296.09)"/><g transform="matrix(1,0,0,1,1916,273)"/><g transform="matrix(1,0,0,1,2147,296)"/></g></g></svg>